<?xml version="1.0" encoding="UTF-8" standalone="no"?>
<!DOCTYPE svg PUBLIC "-//W3C//DTD SVG 1.1//EN"
 "http://www.w3.org/Graphics/SVG/1.1/DTD/svg11.dtd">
<!-- Generated by graphviz version 2.47.3 (20210619.1520)
 -->
<!-- Title: dependencies Pages: 1 -->
<svg width="392pt" height="247pt"
 viewBox="0.00 0.00 392.00 246.80" xmlns="http://www.w3.org/2000/svg" xmlns:xlink="http://www.w3.org/1999/xlink">
<g id="graph0" class="graph" transform="scale(1 1) rotate(0) translate(4 242.8)">
<title>dependencies</title>
<polygon fill="white" stroke="transparent" points="-4,4 -4,-242.8 388,-242.8 388,4 -4,4"/>
<text text-anchor="middle" x="192" y="-8.2" font-family="sans-serif" font-size="14.00">dependencies</text>
<g id="clust1" class="cluster">
<title>cluster_FileUploaderModule</title>
<polygon fill="none" stroke="black" stroke-dasharray="1,5" points="8,-32.8 8,-230.8 376,-230.8 376,-32.8 8,-32.8"/>
</g>
<g id="clust2" class="cluster">
<title>cluster_FileUploaderModule_declarations</title>
<polygon fill="none" stroke="black" points="19,-40.8 19,-92.8 365,-92.8 365,-40.8 19,-40.8"/>
</g>
<g id="clust6" class="cluster">
<title>cluster_FileUploaderModule_exports</title>
<polygon fill="none" stroke="black" points="16,-170.8 16,-222.8 368,-222.8 368,-170.8 16,-170.8"/>
</g>
<!-- FileUploaderComponent -->
<g id="node1" class="node">
<title>FileUploaderComponent</title>
<polygon fill="#ffffb3" stroke="black" points="356.7,-84.8 201.3,-84.8 201.3,-48.8 356.7,-48.8 356.7,-84.8"/>
<text text-anchor="middle" x="279" y="-62.6" font-family="Times,serif" font-size="14.00">FileUploaderComponent</text>
</g>
<!-- FileUploaderModule -->
<g id="node3" class="node">
<title>FileUploaderModule</title>
<polygon fill="#8dd3c7" stroke="black" points="172.92,-149.8 169.92,-153.8 148.92,-153.8 145.92,-149.8 39.08,-149.8 39.08,-113.8 172.92,-113.8 172.92,-149.8"/>
<text text-anchor="middle" x="106" y="-127.6" font-family="Times,serif" font-size="14.00">FileUploaderModule</text>
</g>
<!-- FileUploaderComponent&#45;&gt;FileUploaderModule -->
<g id="edge1" class="edge">
<title>FileUploaderComponent&#45;&gt;FileUploaderModule</title>
<path fill="none" stroke="black" d="M304.95,-84.82C304.95,-102.17 304.95,-125.8 304.95,-125.8 304.95,-125.8 182.8,-125.8 182.8,-125.8"/>
<polygon fill="black" stroke="black" points="182.8,-122.3 172.8,-125.8 182.8,-129.3 182.8,-122.3"/>
</g>
<!-- UploadStatusComponent -->
<g id="node2" class="node">
<title>UploadStatusComponent</title>
<polygon fill="#ffffb3" stroke="black" points="183.27,-84.8 26.73,-84.8 26.73,-48.8 183.27,-48.8 183.27,-84.8"/>
<text text-anchor="middle" x="105" y="-62.6" font-family="Times,serif" font-size="14.00">UploadStatusComponent</text>
</g>
<!-- UploadStatusComponent&#45;&gt;FileUploaderModule -->
<g id="edge2" class="edge">
<title>UploadStatusComponent&#45;&gt;FileUploaderModule</title>
<path fill="none" stroke="black" d="M106,-84.91C106,-84.91 106,-103.79 106,-103.79"/>
<polygon fill="black" stroke="black" points="102.5,-103.79 106,-113.79 109.5,-103.79 102.5,-103.79"/>
</g>
<!-- FileUploaderComponent  -->
<g id="node4" class="node">
<title>FileUploaderComponent </title>
<polygon fill="#fb8072" stroke="black" points="360.2,-214.8 201.8,-214.8 201.8,-178.8 360.2,-178.8 360.2,-214.8"/>
<text text-anchor="middle" x="281" y="-192.6" font-family="Times,serif" font-size="14.00">FileUploaderComponent </text>
</g>
<!-- FileUploaderModule&#45;&gt;FileUploaderComponent  -->
<g id="edge3" class="edge">
<title>FileUploaderModule&#45;&gt;FileUploaderComponent </title>
<path fill="none" stroke="black" stroke-dasharray="5,2" d="M172.75,-137.8C211.73,-137.8 253.3,-137.8 253.3,-137.8 253.3,-137.8 253.3,-168.78 253.3,-168.78"/>
<polygon fill="black" stroke="black" points="249.8,-168.78 253.3,-178.78 256.8,-168.78 249.8,-168.78"/>
</g>
<!-- UploadStatusComponent  -->
<g id="node5" class="node">
<title>UploadStatusComponent </title>
<polygon fill="#fb8072" stroke="black" points="184.27,-214.8 23.73,-214.8 23.73,-178.8 184.27,-178.8 184.27,-214.8"/>
<text text-anchor="middle" x="104" y="-192.6" font-family="Times,serif" font-size="14.00">UploadStatusComponent </text>
</g>
<!-- FileUploaderModule&#45;&gt;UploadStatusComponent  -->
<g id="edge4" class="edge">
<title>FileUploaderModule&#45;&gt;UploadStatusComponent </title>
<path fill="none" stroke="black" stroke-dasharray="5,2" d="M106,-149.91C106,-149.91 106,-168.79 106,-168.79"/>
<polygon fill="black" stroke="black" points="102.5,-168.79 106,-178.79 109.5,-168.79 102.5,-168.79"/>
</g>
</g>
</svg>
