<?xml version="1.0" encoding="UTF-8" standalone="no"?>
<!DOCTYPE svg PUBLIC "-//W3C//DTD SVG 1.1//EN"
 "http://www.w3.org/Graphics/SVG/1.1/DTD/svg11.dtd">
<!-- Generated by graphviz version 2.47.3 (20210619.1520)
 -->
<!-- Title: dependencies Pages: 1 -->
<svg width="611pt" height="174pt"
 viewBox="0.00 0.00 611.00 173.80" xmlns="http://www.w3.org/2000/svg" xmlns:xlink="http://www.w3.org/1999/xlink">
<g id="graph0" class="graph" transform="scale(1 1) rotate(0) translate(4 169.8)">
<title>dependencies</title>
<polygon fill="white" stroke="transparent" points="-4,4 -4,-169.8 607,-169.8 607,4 -4,4"/>
<text text-anchor="middle" x="301.5" y="-8.2" font-family="sans-serif" font-size="14.00">dependencies</text>
<g id="clust1" class="cluster">
<title>cluster_AuthModule</title>
<polygon fill="none" stroke="black" stroke-dasharray="1,5" points="8,-32.8 8,-157.8 595,-157.8 595,-32.8 8,-32.8"/>
</g>
<g id="clust5" class="cluster">
<title>cluster_AuthModule_imports</title>
<polygon fill="none" stroke="black" points="322,-40.8 322,-92.8 587,-92.8 587,-40.8 322,-40.8"/>
</g>
<g id="clust2" class="cluster">
<title>cluster_AuthModule_declarations</title>
<polygon fill="none" stroke="black" points="16,-40.8 16,-92.8 314,-92.8 314,-40.8 16,-40.8"/>
</g>
<!-- LoginComponent -->
<g id="node1" class="node">
<title>LoginComponent</title>
<polygon fill="#ffffb3" stroke="black" points="306.28,-84.8 191.72,-84.8 191.72,-48.8 306.28,-48.8 306.28,-84.8"/>
<text text-anchor="middle" x="249" y="-62.6" font-family="Times,serif" font-size="14.00">LoginComponent</text>
</g>
<!-- AuthModule -->
<g id="node3" class="node">
<title>AuthModule</title>
<polygon fill="#8dd3c7" stroke="black" points="357.55,-149.8 354.55,-153.8 333.55,-153.8 330.55,-149.8 270.45,-149.8 270.45,-113.8 357.55,-113.8 357.55,-149.8"/>
<text text-anchor="middle" x="314" y="-127.6" font-family="Times,serif" font-size="14.00">AuthModule</text>
</g>
<!-- LoginComponent&#45;&gt;AuthModule -->
<g id="edge1" class="edge">
<title>LoginComponent&#45;&gt;AuthModule</title>
<path fill="none" stroke="black" d="M288.31,-84.91C288.31,-84.91 288.31,-103.79 288.31,-103.79"/>
<polygon fill="black" stroke="black" points="284.81,-103.79 288.31,-113.79 291.81,-103.79 284.81,-103.79"/>
</g>
<!-- RegistrationComponent -->
<g id="node2" class="node">
<title>RegistrationComponent</title>
<polygon fill="#ffffb3" stroke="black" points="173.77,-84.8 24.23,-84.8 24.23,-48.8 173.77,-48.8 173.77,-84.8"/>
<text text-anchor="middle" x="99" y="-62.6" font-family="Times,serif" font-size="14.00">RegistrationComponent</text>
</g>
<!-- RegistrationComponent&#45;&gt;AuthModule -->
<g id="edge2" class="edge">
<title>RegistrationComponent&#45;&gt;AuthModule</title>
<path fill="none" stroke="black" d="M99,-84.91C99,-104.14 99,-131.8 99,-131.8 99,-131.8 260.23,-131.8 260.23,-131.8"/>
<polygon fill="black" stroke="black" points="260.23,-135.3 270.23,-131.8 260.23,-128.3 260.23,-135.3"/>
</g>
<!-- AuthRoutingModule -->
<g id="node4" class="node">
<title>AuthRoutingModule</title>
<polygon fill="#8dd3c7" stroke="black" points="579.17,-84.8 576.17,-88.8 555.17,-88.8 552.17,-84.8 446.83,-84.8 446.83,-48.8 579.17,-48.8 579.17,-84.8"/>
<text text-anchor="middle" x="513" y="-62.6" font-family="Times,serif" font-size="14.00">AuthRoutingModule</text>
</g>
<!-- AuthRoutingModule&#45;&gt;AuthModule -->
<g id="edge3" class="edge">
<title>AuthRoutingModule&#45;&gt;AuthModule</title>
<path fill="none" stroke="black" d="M513,-84.91C513,-104.14 513,-131.8 513,-131.8 513,-131.8 367.67,-131.8 367.67,-131.8"/>
<polygon fill="black" stroke="black" points="367.67,-128.3 357.67,-131.8 367.67,-135.3 367.67,-128.3"/>
</g>
<!-- SharedModule -->
<g id="node5" class="node">
<title>SharedModule</title>
<polygon fill="#8dd3c7" stroke="black" points="428.42,-84.8 425.42,-88.8 404.42,-88.8 401.42,-84.8 329.58,-84.8 329.58,-48.8 428.42,-48.8 428.42,-84.8"/>
<text text-anchor="middle" x="379" y="-62.6" font-family="Times,serif" font-size="14.00">SharedModule</text>
</g>
<!-- SharedModule&#45;&gt;AuthModule -->
<g id="edge4" class="edge">
<title>SharedModule&#45;&gt;AuthModule</title>
<path fill="none" stroke="black" d="M343.78,-84.91C343.78,-84.91 343.78,-103.79 343.78,-103.79"/>
<polygon fill="black" stroke="black" points="340.28,-103.79 343.78,-113.79 347.28,-103.79 340.28,-103.79"/>
</g>
</g>
</svg>
