<?xml version="1.0" encoding="UTF-8" standalone="no"?>
<!DOCTYPE svg PUBLIC "-//W3C//DTD SVG 1.1//EN"
 "http://www.w3.org/Graphics/SVG/1.1/DTD/svg11.dtd">
<!-- Generated by graphviz version 2.47.3 (20210619.1520)
 -->
<!-- Title: dependencies Pages: 1 -->
<svg width="1277pt" height="174pt"
 viewBox="0.00 0.00 1277.00 173.80" xmlns="http://www.w3.org/2000/svg" xmlns:xlink="http://www.w3.org/1999/xlink">
<g id="graph0" class="graph" transform="scale(1 1) rotate(0) translate(4 169.8)">
<title>dependencies</title>
<polygon fill="white" stroke="transparent" points="-4,4 -4,-169.8 1273,-169.8 1273,4 -4,4"/>
<text text-anchor="middle" x="634.5" y="-8.2" font-family="sans-serif" font-size="14.00">dependencies</text>
<g id="clust1" class="cluster">
<title>cluster_MediaModule</title>
<polygon fill="none" stroke="black" stroke-dasharray="1,5" points="8,-32.8 8,-157.8 1261,-157.8 1261,-32.8 8,-32.8"/>
</g>
<g id="clust9" class="cluster">
<title>cluster_MediaModule_imports</title>
<polygon fill="none" stroke="black" points="981,-40.8 981,-92.8 1253,-92.8 1253,-40.8 981,-40.8"/>
</g>
<g id="clust2" class="cluster">
<title>cluster_MediaModule_declarations</title>
<polygon fill="none" stroke="black" points="16,-40.8 16,-92.8 973,-92.8 973,-40.8 16,-40.8"/>
</g>
<!-- MediaActionsComponent -->
<g id="node1" class="node">
<title>MediaActionsComponent</title>
<polygon fill="#ffffb3" stroke="black" points="965.14,-84.8 804.86,-84.8 804.86,-48.8 965.14,-48.8 965.14,-84.8"/>
<text text-anchor="middle" x="885" y="-62.6" font-family="Times,serif" font-size="14.00">MediaActionsComponent</text>
</g>
<!-- MediaModule -->
<g id="node7" class="node">
<title>MediaModule</title>
<polygon fill="#8dd3c7" stroke="black" points="695.81,-149.8 692.81,-153.8 671.81,-153.8 668.81,-149.8 600.19,-149.8 600.19,-113.8 695.81,-113.8 695.81,-149.8"/>
<text text-anchor="middle" x="648" y="-127.6" font-family="Times,serif" font-size="14.00">MediaModule</text>
</g>
<!-- MediaActionsComponent&#45;&gt;MediaModule -->
<g id="edge1" class="edge">
<title>MediaActionsComponent&#45;&gt;MediaModule</title>
<path fill="none" stroke="black" d="M885,-84.83C885,-101.2 885,-122.8 885,-122.8 885,-122.8 705.68,-122.8 705.68,-122.8"/>
<polygon fill="black" stroke="black" points="705.68,-119.3 695.68,-122.8 705.68,-126.3 705.68,-119.3"/>
</g>
<!-- MediaComponent -->
<g id="node2" class="node">
<title>MediaComponent</title>
<polygon fill="#ffffb3" stroke="black" points="786.6,-84.8 669.4,-84.8 669.4,-48.8 786.6,-48.8 786.6,-84.8"/>
<text text-anchor="middle" x="728" y="-62.6" font-family="Times,serif" font-size="14.00">MediaComponent</text>
</g>
<!-- MediaComponent&#45;&gt;MediaModule -->
<g id="edge2" class="edge">
<title>MediaComponent&#45;&gt;MediaModule</title>
<path fill="none" stroke="black" d="M682.55,-84.91C682.55,-84.91 682.55,-103.79 682.55,-103.79"/>
<polygon fill="black" stroke="black" points="679.05,-103.79 682.55,-113.79 686.05,-103.79 679.05,-103.79"/>
</g>
<!-- MediaGridListComponent -->
<g id="node3" class="node">
<title>MediaGridListComponent</title>
<polygon fill="#ffffb3" stroke="black" points="651.03,-84.8 486.97,-84.8 486.97,-48.8 651.03,-48.8 651.03,-84.8"/>
<text text-anchor="middle" x="569" y="-62.6" font-family="Times,serif" font-size="14.00">MediaGridListComponent</text>
</g>
<!-- MediaGridListComponent&#45;&gt;MediaModule -->
<g id="edge3" class="edge">
<title>MediaGridListComponent&#45;&gt;MediaModule</title>
<path fill="none" stroke="black" d="M625.8,-84.91C625.8,-84.91 625.8,-103.79 625.8,-103.79"/>
<polygon fill="black" stroke="black" points="622.3,-103.79 625.8,-113.79 629.3,-103.79 622.3,-103.79"/>
</g>
<!-- MediaImageComponent -->
<g id="node4" class="node">
<title>MediaImageComponent</title>
<polygon fill="#ffffb3" stroke="black" points="469.08,-84.8 316.92,-84.8 316.92,-48.8 469.08,-48.8 469.08,-84.8"/>
<text text-anchor="middle" x="393" y="-62.6" font-family="Times,serif" font-size="14.00">MediaImageComponent</text>
</g>
<!-- MediaImageComponent&#45;&gt;MediaModule -->
<g id="edge4" class="edge">
<title>MediaImageComponent&#45;&gt;MediaModule</title>
<path fill="none" stroke="black" d="M393,-84.83C393,-101.2 393,-122.8 393,-122.8 393,-122.8 590.34,-122.8 590.34,-122.8"/>
<polygon fill="black" stroke="black" points="590.34,-126.3 600.34,-122.8 590.34,-119.3 590.34,-126.3"/>
</g>
<!-- MediaTypePipe -->
<g id="node5" class="node">
<title>MediaTypePipe</title>
<polygon fill="#ffffb3" stroke="black" points="298.92,-84.8 193.08,-84.8 193.08,-48.8 298.92,-48.8 298.92,-84.8"/>
<text text-anchor="middle" x="246" y="-62.6" font-family="Times,serif" font-size="14.00">MediaTypePipe</text>
</g>
<!-- MediaTypePipe&#45;&gt;MediaModule -->
<g id="edge5" class="edge">
<title>MediaTypePipe&#45;&gt;MediaModule</title>
<path fill="none" stroke="black" d="M246,-84.91C246,-104.14 246,-131.8 246,-131.8 246,-131.8 590.31,-131.8 590.31,-131.8"/>
<polygon fill="black" stroke="black" points="590.31,-135.3 600.31,-131.8 590.31,-128.3 590.31,-135.3"/>
</g>
<!-- MediaVideoComponent -->
<g id="node6" class="node">
<title>MediaVideoComponent</title>
<polygon fill="#ffffb3" stroke="black" points="175.81,-84.8 24.19,-84.8 24.19,-48.8 175.81,-48.8 175.81,-84.8"/>
<text text-anchor="middle" x="100" y="-62.6" font-family="Times,serif" font-size="14.00">MediaVideoComponent</text>
</g>
<!-- MediaVideoComponent&#45;&gt;MediaModule -->
<g id="edge6" class="edge">
<title>MediaVideoComponent&#45;&gt;MediaModule</title>
<path fill="none" stroke="black" d="M100,-85.09C100,-107.01 100,-140.8 100,-140.8 100,-140.8 590.33,-140.8 590.33,-140.8"/>
<polygon fill="black" stroke="black" points="590.33,-144.3 600.33,-140.8 590.33,-137.3 590.33,-144.3"/>
</g>
<!-- MediaRoutingModule -->
<g id="node8" class="node">
<title>MediaRoutingModule</title>
<polygon fill="#8dd3c7" stroke="black" points="1245.43,-84.8 1242.43,-88.8 1221.43,-88.8 1218.43,-84.8 1104.57,-84.8 1104.57,-48.8 1245.43,-48.8 1245.43,-84.8"/>
<text text-anchor="middle" x="1175" y="-62.6" font-family="Times,serif" font-size="14.00">MediaRoutingModule</text>
</g>
<!-- MediaRoutingModule&#45;&gt;MediaModule -->
<g id="edge7" class="edge">
<title>MediaRoutingModule&#45;&gt;MediaModule</title>
<path fill="none" stroke="black" d="M1175,-85.09C1175,-107.01 1175,-140.8 1175,-140.8 1175,-140.8 705.7,-140.8 705.7,-140.8"/>
<polygon fill="black" stroke="black" points="705.7,-137.3 695.7,-140.8 705.7,-144.3 705.7,-137.3"/>
</g>
<!-- SharedModule -->
<g id="node9" class="node">
<title>SharedModule</title>
<polygon fill="#8dd3c7" stroke="black" points="1087.42,-84.8 1084.42,-88.8 1063.42,-88.8 1060.42,-84.8 988.58,-84.8 988.58,-48.8 1087.42,-48.8 1087.42,-84.8"/>
<text text-anchor="middle" x="1038" y="-62.6" font-family="Times,serif" font-size="14.00">SharedModule</text>
</g>
<!-- SharedModule&#45;&gt;MediaModule -->
<g id="edge8" class="edge">
<title>SharedModule&#45;&gt;MediaModule</title>
<path fill="none" stroke="black" d="M1038,-84.91C1038,-104.14 1038,-131.8 1038,-131.8 1038,-131.8 705.82,-131.8 705.82,-131.8"/>
<polygon fill="black" stroke="black" points="705.82,-128.3 695.82,-131.8 705.82,-135.3 705.82,-128.3"/>
</g>
</g>
</svg>
