<?xml version="1.0" encoding="UTF-8" standalone="no"?>
<!DOCTYPE svg PUBLIC "-//W3C//DTD SVG 1.1//EN"
 "http://www.w3.org/Graphics/SVG/1.1/DTD/svg11.dtd">
<!-- Generated by graphviz version 2.47.3 (20210619.1520)
 -->
<!-- Title: dependencies Pages: 1 -->
<svg width="1152pt" height="247pt"
 viewBox="0.00 0.00 1152.00 246.80" xmlns="http://www.w3.org/2000/svg" xmlns:xlink="http://www.w3.org/1999/xlink">
<g id="graph0" class="graph" transform="scale(1 1) rotate(0) translate(4 242.8)">
<title>dependencies</title>
<polygon fill="white" stroke="transparent" points="-4,4 -4,-242.8 1148,-242.8 1148,4 -4,4"/>
<text text-anchor="middle" x="572" y="-8.2" font-family="sans-serif" font-size="14.00">dependencies</text>
<g id="clust1" class="cluster">
<title>cluster_AppModule</title>
<polygon fill="none" stroke="black" stroke-dasharray="1,5" points="8,-32.8 8,-230.8 1136,-230.8 1136,-32.8 8,-32.8"/>
</g>
<g id="clust10" class="cluster">
<title>cluster_AppModule_bootstrap</title>
<polygon fill="none" stroke="black" points="475,-170.8 475,-222.8 599,-222.8 599,-170.8 475,-170.8"/>
</g>
<g id="clust2" class="cluster">
<title>cluster_AppModule_declarations</title>
<polygon fill="none" stroke="black" points="390,-40.8 390,-92.8 1128,-92.8 1128,-40.8 390,-40.8"/>
</g>
<g id="clust8" class="cluster">
<title>cluster_AppModule_imports</title>
<polygon fill="none" stroke="black" points="16,-40.8 16,-92.8 382,-92.8 382,-40.8 16,-40.8"/>
</g>
<!-- AppComponent -->
<g id="node1" class="node">
<title>AppComponent</title>
<polygon fill="#ffffb3" stroke="black" points="1119.94,-84.8 1014.06,-84.8 1014.06,-48.8 1119.94,-48.8 1119.94,-84.8"/>
<text text-anchor="middle" x="1067" y="-62.6" font-family="Times,serif" font-size="14.00">AppComponent</text>
</g>
<!-- AppModule -->
<g id="node6" class="node">
<title>AppModule</title>
<polygon fill="#8dd3c7" stroke="black" points="578.66,-149.8 575.66,-153.8 554.66,-153.8 551.66,-149.8 495.34,-149.8 495.34,-113.8 578.66,-113.8 578.66,-149.8"/>
<text text-anchor="middle" x="537" y="-127.6" font-family="Times,serif" font-size="14.00">AppModule</text>
</g>
<!-- AppComponent&#45;&gt;AppModule -->
<g id="edge1" class="edge">
<title>AppComponent&#45;&gt;AppModule</title>
<path fill="none" stroke="black" d="M1067,-85.09C1067,-107.01 1067,-140.8 1067,-140.8 1067,-140.8 589.03,-140.8 589.03,-140.8"/>
<polygon fill="black" stroke="black" points="589.03,-137.3 579.03,-140.8 589.03,-144.3 589.03,-137.3"/>
</g>
<!-- AuthLayoutComponent -->
<g id="node2" class="node">
<title>AuthLayoutComponent</title>
<polygon fill="#ffffb3" stroke="black" points="996.49,-84.8 847.51,-84.8 847.51,-48.8 996.49,-48.8 996.49,-84.8"/>
<text text-anchor="middle" x="922" y="-62.6" font-family="Times,serif" font-size="14.00">AuthLayoutComponent</text>
</g>
<!-- AuthLayoutComponent&#45;&gt;AppModule -->
<g id="edge2" class="edge">
<title>AuthLayoutComponent&#45;&gt;AppModule</title>
<path fill="none" stroke="black" d="M922,-84.91C922,-104.14 922,-131.8 922,-131.8 922,-131.8 588.93,-131.8 588.93,-131.8"/>
<polygon fill="black" stroke="black" points="588.93,-128.3 578.93,-131.8 588.93,-135.3 588.93,-128.3"/>
</g>
<!-- HeaderComponent -->
<g id="node3" class="node">
<title>HeaderComponent</title>
<polygon fill="#ffffb3" stroke="black" points="829.74,-84.8 708.26,-84.8 708.26,-48.8 829.74,-48.8 829.74,-84.8"/>
<text text-anchor="middle" x="769" y="-62.6" font-family="Times,serif" font-size="14.00">HeaderComponent</text>
</g>
<!-- HeaderComponent&#45;&gt;AppModule -->
<g id="edge3" class="edge">
<title>HeaderComponent&#45;&gt;AppModule</title>
<path fill="none" stroke="black" d="M769,-84.83C769,-101.2 769,-122.8 769,-122.8 769,-122.8 588.74,-122.8 588.74,-122.8"/>
<polygon fill="black" stroke="black" points="588.74,-119.3 578.74,-122.8 588.74,-126.3 588.74,-119.3"/>
</g>
<!-- MainLayoutComponent -->
<g id="node4" class="node">
<title>MainLayoutComponent</title>
<polygon fill="#ffffb3" stroke="black" points="690.04,-84.8 539.96,-84.8 539.96,-48.8 690.04,-48.8 690.04,-84.8"/>
<text text-anchor="middle" x="615" y="-62.6" font-family="Times,serif" font-size="14.00">MainLayoutComponent</text>
</g>
<!-- MainLayoutComponent&#45;&gt;AppModule -->
<g id="edge4" class="edge">
<title>MainLayoutComponent&#45;&gt;AppModule</title>
<path fill="none" stroke="black" d="M559.28,-84.91C559.28,-84.91 559.28,-103.79 559.28,-103.79"/>
<polygon fill="black" stroke="black" points="555.78,-103.79 559.28,-113.79 562.78,-103.79 555.78,-103.79"/>
</g>
<!-- SidebarComponent -->
<g id="node5" class="node">
<title>SidebarComponent</title>
<polygon fill="#ffffb3" stroke="black" points="522.1,-84.8 397.9,-84.8 397.9,-48.8 522.1,-48.8 522.1,-84.8"/>
<text text-anchor="middle" x="460" y="-62.6" font-family="Times,serif" font-size="14.00">SidebarComponent</text>
</g>
<!-- SidebarComponent&#45;&gt;AppModule -->
<g id="edge5" class="edge">
<title>SidebarComponent&#45;&gt;AppModule</title>
<path fill="none" stroke="black" d="M508.61,-84.91C508.61,-84.91 508.61,-103.79 508.61,-103.79"/>
<polygon fill="black" stroke="black" points="505.11,-103.79 508.61,-113.79 512.11,-103.79 505.11,-103.79"/>
</g>
<!-- AppComponent  -->
<g id="node10" class="node">
<title>AppComponent </title>
<polygon fill="#80b1d3" stroke="black" points="591.44,-214.8 482.56,-214.8 482.56,-178.8 591.44,-178.8 591.44,-214.8"/>
<text text-anchor="middle" x="537" y="-192.6" font-family="Times,serif" font-size="14.00">AppComponent </text>
</g>
<!-- AppModule&#45;&gt;AppComponent  -->
<g id="edge9" class="edge">
<title>AppModule&#45;&gt;AppComponent </title>
<path fill="none" stroke="black" stroke-dasharray="1,5" d="M537,-149.91C537,-149.91 537,-168.79 537,-168.79"/>
<polygon fill="black" stroke="black" points="533.5,-168.79 537,-178.79 540.5,-168.79 533.5,-168.79"/>
</g>
<!-- AppRoutingModule -->
<g id="node7" class="node">
<title>AppRoutingModule</title>
<polygon fill="#8dd3c7" stroke="black" points="374.27,-84.8 371.27,-88.8 350.27,-88.8 347.27,-84.8 245.73,-84.8 245.73,-48.8 374.27,-48.8 374.27,-84.8"/>
<text text-anchor="middle" x="310" y="-62.6" font-family="Times,serif" font-size="14.00">AppRoutingModule</text>
</g>
<!-- AppRoutingModule&#45;&gt;AppModule -->
<g id="edge6" class="edge">
<title>AppRoutingModule&#45;&gt;AppModule</title>
<path fill="none" stroke="black" d="M310,-84.83C310,-101.2 310,-122.8 310,-122.8 310,-122.8 485.1,-122.8 485.1,-122.8"/>
<polygon fill="black" stroke="black" points="485.1,-126.3 495.1,-122.8 485.1,-119.3 485.1,-126.3"/>
</g>
<!-- CoreModule -->
<g id="node8" class="node">
<title>CoreModule</title>
<polygon fill="#8dd3c7" stroke="black" points="227.26,-84.8 224.26,-88.8 203.26,-88.8 200.26,-84.8 140.74,-84.8 140.74,-48.8 227.26,-48.8 227.26,-84.8"/>
<text text-anchor="middle" x="184" y="-62.6" font-family="Times,serif" font-size="14.00">CoreModule</text>
</g>
<!-- CoreModule&#45;&gt;AppModule -->
<g id="edge7" class="edge">
<title>CoreModule&#45;&gt;AppModule</title>
<path fill="none" stroke="black" d="M184,-84.91C184,-104.14 184,-131.8 184,-131.8 184,-131.8 485.12,-131.8 485.12,-131.8"/>
<polygon fill="black" stroke="black" points="485.12,-135.3 495.12,-131.8 485.12,-128.3 485.12,-135.3"/>
</g>
<!-- SharedModule -->
<g id="node9" class="node">
<title>SharedModule</title>
<polygon fill="#8dd3c7" stroke="black" points="122.42,-84.8 119.42,-88.8 98.42,-88.8 95.42,-84.8 23.58,-84.8 23.58,-48.8 122.42,-48.8 122.42,-84.8"/>
<text text-anchor="middle" x="73" y="-62.6" font-family="Times,serif" font-size="14.00">SharedModule</text>
</g>
<!-- SharedModule&#45;&gt;AppModule -->
<g id="edge8" class="edge">
<title>SharedModule&#45;&gt;AppModule</title>
<path fill="none" stroke="black" d="M73,-85.09C73,-107.01 73,-140.8 73,-140.8 73,-140.8 485,-140.8 485,-140.8"/>
<polygon fill="black" stroke="black" points="485,-144.3 495,-140.8 485,-137.3 485,-144.3"/>
</g>
</g>
</svg>
