<?xml version="1.0" encoding="UTF-8" standalone="no"?>
<!DOCTYPE svg PUBLIC "-//W3C//DTD SVG 1.1//EN"
 "http://www.w3.org/Graphics/SVG/1.1/DTD/svg11.dtd">
<!-- Generated by graphviz version 2.47.3 (20210619.1520)
 -->
<!-- Title: dependencies Pages: 1 -->
<svg width="3533pt" height="253pt"
 viewBox="0.00 0.00 3533.00 252.80" xmlns="http://www.w3.org/2000/svg" xmlns:xlink="http://www.w3.org/1999/xlink">
<g id="graph0" class="graph" transform="scale(1 1) rotate(0) translate(4 248.8)">
<title>dependencies</title>
<polygon fill="white" stroke="transparent" points="-4,4 -4,-248.8 3529,-248.8 3529,4 -4,4"/>
<text text-anchor="middle" x="1762.5" y="-8.2" font-family="sans-serif" font-size="14.00">dependencies</text>
<g id="clust1" class="cluster">
<title>cluster_AppModule</title>
<polygon fill="none" stroke="black" stroke-dasharray="1,5" points="8,-32.8 8,-236.8 1136,-236.8 1136,-32.8 8,-32.8"/>
</g>
<g id="clust2" class="cluster">
<title>cluster_AppModule_declarations</title>
<polygon fill="none" stroke="black" points="16,-40.8 16,-92.8 754,-92.8 754,-40.8 16,-40.8"/>
</g>
<g id="clust8" class="cluster">
<title>cluster_AppModule_imports</title>
<polygon fill="none" stroke="black" points="762,-40.8 762,-92.8 1128,-92.8 1128,-40.8 762,-40.8"/>
</g>
<g id="clust10" class="cluster">
<title>cluster_AppModule_bootstrap</title>
<polygon fill="none" stroke="black" points="558,-176.8 558,-228.8 682,-228.8 682,-176.8 558,-176.8"/>
</g>
<g id="clust18" class="cluster">
<title>cluster_AuthModule</title>
<polygon fill="none" stroke="black" stroke-dasharray="1,5" points="1526,-32.8 1526,-160.8 1996,-160.8 1996,-32.8 1526,-32.8"/>
</g>
<g id="clust19" class="cluster">
<title>cluster_AuthModule_declarations</title>
<polygon fill="none" stroke="black" points="1690,-40.8 1690,-92.8 1988,-92.8 1988,-40.8 1690,-40.8"/>
</g>
<g id="clust22" class="cluster">
<title>cluster_AuthModule_imports</title>
<polygon fill="none" stroke="black" points="1534,-40.8 1534,-92.8 1682,-92.8 1682,-40.8 1534,-40.8"/>
</g>
<g id="clust32" class="cluster">
<title>cluster_CoreModule</title>
<polygon fill="none" stroke="black" stroke-dasharray="1,5" points="1144,-100.8 1144,-168.8 1518,-168.8 1518,-100.8 1144,-100.8"/>
</g>
<g id="clust35" class="cluster">
<title>cluster_CoreModule_exports</title>
<polygon fill="none" stroke="black" points="1358,-108.8 1358,-160.8 1510,-160.8 1510,-108.8 1358,-108.8"/>
</g>
<g id="clust37" class="cluster">
<title>cluster_CoreModule_providers</title>
<polygon fill="none" stroke="black" points="1152,-108.8 1152,-160.8 1350,-160.8 1350,-108.8 1152,-108.8"/>
</g>
<g id="clust38" class="cluster">
<title>cluster_FileUploaderModule</title>
<polygon fill="none" stroke="black" stroke-dasharray="1,5" points="3149,-32.8 3149,-236.8 3517,-236.8 3517,-32.8 3149,-32.8"/>
</g>
<g id="clust39" class="cluster">
<title>cluster_FileUploaderModule_declarations</title>
<polygon fill="none" stroke="black" points="3160,-40.8 3160,-92.8 3506,-92.8 3506,-40.8 3160,-40.8"/>
</g>
<g id="clust43" class="cluster">
<title>cluster_FileUploaderModule_exports</title>
<polygon fill="none" stroke="black" points="3157,-176.8 3157,-228.8 3509,-228.8 3509,-176.8 3157,-176.8"/>
</g>
<g id="clust52" class="cluster">
<title>cluster_MediaModule</title>
<polygon fill="none" stroke="black" stroke-dasharray="1,5" points="2004,-32.8 2004,-160.8 3141,-160.8 3141,-32.8 2004,-32.8"/>
</g>
<g id="clust53" class="cluster">
<title>cluster_MediaModule_declarations</title>
<polygon fill="none" stroke="black" points="2176,-40.8 2176,-92.8 3133,-92.8 3133,-40.8 2176,-40.8"/>
</g>
<g id="clust60" class="cluster">
<title>cluster_MediaModule_imports</title>
<polygon fill="none" stroke="black" points="2012,-40.8 2012,-92.8 2168,-92.8 2168,-40.8 2012,-40.8"/>
</g>
<!-- AppComponent -->
<g id="node1" class="node">
<title>AppComponent</title>
<polygon fill="#ffffb3" stroke="black" points="745.94,-84.8 640.06,-84.8 640.06,-48.8 745.94,-48.8 745.94,-84.8"/>
<text text-anchor="middle" x="693" y="-62.6" font-family="Times,serif" font-size="14.00">AppComponent</text>
</g>
<!-- AppModule -->
<g id="node6" class="node">
<title>AppModule</title>
<polygon fill="#8dd3c7" stroke="black" points="661.66,-152.8 658.66,-156.8 637.66,-156.8 634.66,-152.8 578.34,-152.8 578.34,-116.8 661.66,-116.8 661.66,-152.8"/>
<text text-anchor="middle" x="620" y="-130.6" font-family="Times,serif" font-size="14.00">AppModule</text>
</g>
<!-- AppComponent&#45;&gt;AppModule -->
<g id="edge1" class="edge">
<title>AppComponent&#45;&gt;AppModule</title>
<path fill="none" stroke="black" d="M651.05,-85.02C651.05,-85.02 651.05,-106.53 651.05,-106.53"/>
<polygon fill="black" stroke="black" points="647.55,-106.53 651.05,-116.53 654.55,-106.53 647.55,-106.53"/>
</g>
<!-- AuthLayoutComponent -->
<g id="node2" class="node">
<title>AuthLayoutComponent</title>
<polygon fill="#ffffb3" stroke="black" points="622.49,-84.8 473.51,-84.8 473.51,-48.8 622.49,-48.8 622.49,-84.8"/>
<text text-anchor="middle" x="548" y="-62.6" font-family="Times,serif" font-size="14.00">AuthLayoutComponent</text>
</g>
<!-- AuthLayoutComponent&#45;&gt;AppModule -->
<g id="edge2" class="edge">
<title>AuthLayoutComponent&#45;&gt;AppModule</title>
<path fill="none" stroke="black" d="M600.33,-85.02C600.33,-85.02 600.33,-106.53 600.33,-106.53"/>
<polygon fill="black" stroke="black" points="596.83,-106.53 600.33,-116.53 603.83,-106.53 596.83,-106.53"/>
</g>
<!-- HeaderComponent -->
<g id="node3" class="node">
<title>HeaderComponent</title>
<polygon fill="#ffffb3" stroke="black" points="455.74,-84.8 334.26,-84.8 334.26,-48.8 455.74,-48.8 455.74,-84.8"/>
<text text-anchor="middle" x="395" y="-62.6" font-family="Times,serif" font-size="14.00">HeaderComponent</text>
</g>
<!-- HeaderComponent&#45;&gt;AppModule -->
<g id="edge3" class="edge">
<title>HeaderComponent&#45;&gt;AppModule</title>
<path fill="none" stroke="black" d="M395,-84.82C395,-102.17 395,-125.8 395,-125.8 395,-125.8 568.21,-125.8 568.21,-125.8"/>
<polygon fill="black" stroke="black" points="568.21,-129.3 578.21,-125.8 568.21,-122.3 568.21,-129.3"/>
</g>
<!-- MainLayoutComponent -->
<g id="node4" class="node">
<title>MainLayoutComponent</title>
<polygon fill="#ffffb3" stroke="black" points="316.04,-84.8 165.96,-84.8 165.96,-48.8 316.04,-48.8 316.04,-84.8"/>
<text text-anchor="middle" x="241" y="-62.6" font-family="Times,serif" font-size="14.00">MainLayoutComponent</text>
</g>
<!-- MainLayoutComponent&#45;&gt;AppModule -->
<g id="edge4" class="edge">
<title>MainLayoutComponent&#45;&gt;AppModule</title>
<path fill="none" stroke="black" d="M241,-85.02C241,-105.17 241,-134.8 241,-134.8 241,-134.8 567.99,-134.8 567.99,-134.8"/>
<polygon fill="black" stroke="black" points="567.99,-138.3 577.99,-134.8 567.99,-131.3 567.99,-138.3"/>
</g>
<!-- SidebarComponent -->
<g id="node5" class="node">
<title>SidebarComponent</title>
<polygon fill="#ffffb3" stroke="black" points="148.1,-84.8 23.9,-84.8 23.9,-48.8 148.1,-48.8 148.1,-84.8"/>
<text text-anchor="middle" x="86" y="-62.6" font-family="Times,serif" font-size="14.00">SidebarComponent</text>
</g>
<!-- SidebarComponent&#45;&gt;AppModule -->
<g id="edge5" class="edge">
<title>SidebarComponent&#45;&gt;AppModule</title>
<path fill="none" stroke="black" d="M86,-85.05C86,-107.82 86,-143.8 86,-143.8 86,-143.8 568.1,-143.8 568.1,-143.8"/>
<polygon fill="black" stroke="black" points="568.1,-147.3 578.1,-143.8 568.1,-140.3 568.1,-147.3"/>
</g>
<!-- AppComponent  -->
<g id="node10" class="node">
<title>AppComponent </title>
<polygon fill="#80b1d3" stroke="black" points="674.44,-220.8 565.56,-220.8 565.56,-184.8 674.44,-184.8 674.44,-220.8"/>
<text text-anchor="middle" x="620" y="-198.6" font-family="Times,serif" font-size="14.00">AppComponent </text>
</g>
<!-- AppModule&#45;&gt;AppComponent  -->
<g id="edge9" class="edge">
<title>AppModule&#45;&gt;AppComponent </title>
<path fill="none" stroke="black" stroke-dasharray="1,5" d="M620,-153.02C620,-153.02 620,-174.53 620,-174.53"/>
<polygon fill="black" stroke="black" points="616.5,-174.53 620,-184.53 623.5,-174.53 616.5,-174.53"/>
</g>
<!-- AppRoutingModule -->
<g id="node7" class="node">
<title>AppRoutingModule</title>
<polygon fill="#8dd3c7" stroke="black" points="898.27,-84.8 895.27,-88.8 874.27,-88.8 871.27,-84.8 769.73,-84.8 769.73,-48.8 898.27,-48.8 898.27,-84.8"/>
<text text-anchor="middle" x="834" y="-62.6" font-family="Times,serif" font-size="14.00">AppRoutingModule</text>
</g>
<!-- AppRoutingModule&#45;&gt;AppModule -->
<g id="edge6" class="edge">
<title>AppRoutingModule&#45;&gt;AppModule</title>
<path fill="none" stroke="black" d="M834,-84.91C834,-104.14 834,-131.8 834,-131.8 834,-131.8 671.77,-131.8 671.77,-131.8"/>
<polygon fill="black" stroke="black" points="671.77,-128.3 661.77,-131.8 671.77,-135.3 671.77,-128.3"/>
</g>
<!-- CoreModule -->
<g id="node8" class="node">
<title>CoreModule</title>
<polygon fill="#8dd3c7" stroke="black" points="1003.26,-84.8 1000.26,-88.8 979.26,-88.8 976.26,-84.8 916.74,-84.8 916.74,-48.8 1003.26,-48.8 1003.26,-84.8"/>
<text text-anchor="middle" x="960" y="-62.6" font-family="Times,serif" font-size="14.00">CoreModule</text>
</g>
<!-- CoreModule&#45;&gt;AppModule -->
<g id="edge7" class="edge">
<title>CoreModule&#45;&gt;AppModule</title>
<path fill="none" stroke="black" d="M960,-84.97C960,-106.3 960,-138.8 960,-138.8 960,-138.8 671.69,-138.8 671.69,-138.8"/>
<polygon fill="black" stroke="black" points="671.69,-135.3 661.69,-138.8 671.69,-142.3 671.69,-135.3"/>
</g>
<!-- FileUploaderModule  -->
<g id="node15" class="node">
<title>FileUploaderModule </title>
<polygon fill="#fb8072" stroke="black" points="1502.42,-152.8 1365.58,-152.8 1365.58,-116.8 1502.42,-116.8 1502.42,-152.8"/>
<text text-anchor="middle" x="1434" y="-130.6" font-family="Times,serif" font-size="14.00">FileUploaderModule </text>
</g>
<!-- CoreModule&#45;&gt;FileUploaderModule  -->
<g id="edge14" class="edge">
<title>CoreModule&#45;&gt;FileUploaderModule </title>
<path fill="none" stroke="black" stroke-dasharray="5,2" d="M938.31,-84.93C938.31,-95.51 938.31,-106.8 938.31,-106.8 938.31,-106.8 1434,-106.8 1434,-106.8 1434,-106.8 1434,-107.78 1434,-107.78"/>
<polygon fill="black" stroke="black" points="1430.5,-106.59 1434,-116.59 1437.5,-106.59 1430.5,-106.59"/>
</g>
<!-- SharedModule -->
<g id="node9" class="node">
<title>SharedModule</title>
<polygon fill="#8dd3c7" stroke="black" points="1120.42,-84.8 1117.42,-88.8 1096.42,-88.8 1093.42,-84.8 1021.58,-84.8 1021.58,-48.8 1120.42,-48.8 1120.42,-84.8"/>
<text text-anchor="middle" x="1071" y="-62.6" font-family="Times,serif" font-size="14.00">SharedModule</text>
</g>
<!-- SharedModule&#45;&gt;AppModule -->
<g id="edge8" class="edge">
<title>SharedModule&#45;&gt;AppModule</title>
<path fill="none" stroke="black" d="M1087.4,-85.12C1087.4,-108.46 1087.4,-145.8 1087.4,-145.8 1087.4,-145.8 671.89,-145.8 671.89,-145.8"/>
<polygon fill="black" stroke="black" points="671.89,-142.3 661.89,-145.8 671.89,-149.3 671.89,-142.3"/>
</g>
<!-- AuthModule -->
<g id="node13" class="node">
<title>AuthModule</title>
<polygon fill="#8dd3c7" stroke="black" points="1733.55,-152.8 1730.55,-156.8 1709.55,-156.8 1706.55,-152.8 1646.45,-152.8 1646.45,-116.8 1733.55,-116.8 1733.55,-152.8"/>
<text text-anchor="middle" x="1690" y="-130.6" font-family="Times,serif" font-size="14.00">AuthModule</text>
</g>
<!-- SharedModule&#45;&gt;AuthModule -->
<g id="edge13" class="edge">
<title>SharedModule&#45;&gt;AuthModule</title>
<path fill="none" stroke="black" d="M1120.56,-66.8C1237.74,-66.8 1522.06,-66.8 1522.06,-66.8 1522.06,-66.8 1522.06,-134.8 1522.06,-134.8 1522.06,-134.8 1636.31,-134.8 1636.31,-134.8"/>
<polygon fill="black" stroke="black" points="1636.31,-138.3 1646.31,-134.8 1636.31,-131.3 1636.31,-138.3"/>
</g>
<!-- MediaModule -->
<g id="node28" class="node">
<title>MediaModule</title>
<polygon fill="#8dd3c7" stroke="black" points="2534.81,-152.8 2531.81,-156.8 2510.81,-156.8 2507.81,-152.8 2439.19,-152.8 2439.19,-116.8 2534.81,-116.8 2534.81,-152.8"/>
<text text-anchor="middle" x="2487" y="-130.6" font-family="Times,serif" font-size="14.00">MediaModule</text>
</g>
<!-- SharedModule&#45;&gt;MediaModule -->
<g id="edge27" class="edge">
<title>SharedModule&#45;&gt;MediaModule</title>
<path fill="none" stroke="black" d="M1054.6,-85C1054.6,-90.83 1054.6,-95.8 1054.6,-95.8 1054.6,-95.8 2453,-95.8 2453,-95.8 2453,-95.8 2453,-106.67 2453,-106.67"/>
<polygon fill="black" stroke="black" points="2449.5,-106.67 2453,-116.67 2456.5,-106.67 2449.5,-106.67"/>
</g>
<!-- LoginComponent -->
<g id="node11" class="node">
<title>LoginComponent</title>
<polygon fill="#ffffb3" stroke="black" points="1980.28,-84.8 1865.72,-84.8 1865.72,-48.8 1980.28,-48.8 1980.28,-84.8"/>
<text text-anchor="middle" x="1923" y="-62.6" font-family="Times,serif" font-size="14.00">LoginComponent</text>
</g>
<!-- LoginComponent&#45;&gt;AuthModule -->
<g id="edge10" class="edge">
<title>LoginComponent&#45;&gt;AuthModule</title>
<path fill="none" stroke="black" d="M1923,-85.05C1923,-107.82 1923,-143.8 1923,-143.8 1923,-143.8 1743.55,-143.8 1743.55,-143.8"/>
<polygon fill="black" stroke="black" points="1743.55,-140.3 1733.55,-143.8 1743.55,-147.3 1743.55,-140.3"/>
</g>
<!-- RegistrationComponent -->
<g id="node12" class="node">
<title>RegistrationComponent</title>
<polygon fill="#ffffb3" stroke="black" points="1847.77,-84.8 1698.23,-84.8 1698.23,-48.8 1847.77,-48.8 1847.77,-84.8"/>
<text text-anchor="middle" x="1773" y="-62.6" font-family="Times,serif" font-size="14.00">RegistrationComponent</text>
</g>
<!-- RegistrationComponent&#45;&gt;AuthModule -->
<g id="edge11" class="edge">
<title>RegistrationComponent&#45;&gt;AuthModule</title>
<path fill="none" stroke="black" d="M1715.95,-85.02C1715.95,-85.02 1715.95,-106.53 1715.95,-106.53"/>
<polygon fill="black" stroke="black" points="1712.45,-106.53 1715.95,-116.53 1719.45,-106.53 1712.45,-106.53"/>
</g>
<!-- AuthRoutingModule -->
<g id="node14" class="node">
<title>AuthRoutingModule</title>
<polygon fill="#8dd3c7" stroke="black" points="1674.17,-84.8 1671.17,-88.8 1650.17,-88.8 1647.17,-84.8 1541.83,-84.8 1541.83,-48.8 1674.17,-48.8 1674.17,-84.8"/>
<text text-anchor="middle" x="1608" y="-62.6" font-family="Times,serif" font-size="14.00">AuthRoutingModule</text>
</g>
<!-- AuthRoutingModule&#45;&gt;AuthModule -->
<g id="edge12" class="edge">
<title>AuthRoutingModule&#45;&gt;AuthModule</title>
<path fill="none" stroke="black" d="M1660.28,-85.02C1660.28,-85.02 1660.28,-106.53 1660.28,-106.53"/>
<polygon fill="black" stroke="black" points="1656.78,-106.53 1660.28,-116.53 1663.78,-106.53 1656.78,-106.53"/>
</g>
<!-- FileUploaderService -->
<g id="node16" class="node">
<title>FileUploaderService</title>
<ellipse fill="#fdb462" stroke="black" cx="1251" cy="-134.8" rx="90.89" ry="18"/>
<text text-anchor="middle" x="1251" y="-130.6" font-family="Times,serif" font-size="14.00">FileUploaderService</text>
</g>
<!-- FileUploaderService&#45;&gt;CoreModule -->
<g id="edge15" class="edge">
<title>FileUploaderService&#45;&gt;CoreModule</title>
<path fill="none" stroke="black" d="M1175.27,-124.8C1095.61,-124.8 981.69,-124.8 981.69,-124.8 981.69,-124.8 981.69,-94.83 981.69,-94.83"/>
<polygon fill="black" stroke="black" points="985.19,-94.83 981.69,-84.83 978.19,-94.83 985.19,-94.83"/>
</g>
<!-- FileUploaderComponent -->
<g id="node17" class="node">
<title>FileUploaderComponent</title>
<polygon fill="#ffffb3" stroke="black" points="3497.7,-84.8 3342.3,-84.8 3342.3,-48.8 3497.7,-48.8 3497.7,-84.8"/>
<text text-anchor="middle" x="3420" y="-62.6" font-family="Times,serif" font-size="14.00">FileUploaderComponent</text>
</g>
<!-- FileUploaderModule -->
<g id="node19" class="node">
<title>FileUploaderModule</title>
<polygon fill="#8dd3c7" stroke="black" points="3313.92,-152.8 3310.92,-156.8 3289.92,-156.8 3286.92,-152.8 3180.08,-152.8 3180.08,-116.8 3313.92,-116.8 3313.92,-152.8"/>
<text text-anchor="middle" x="3247" y="-130.6" font-family="Times,serif" font-size="14.00">FileUploaderModule</text>
</g>
<!-- FileUploaderComponent&#45;&gt;FileUploaderModule -->
<g id="edge16" class="edge">
<title>FileUploaderComponent&#45;&gt;FileUploaderModule</title>
<path fill="none" stroke="black" d="M3445.95,-85.07C3445.95,-103.36 3445.95,-128.8 3445.95,-128.8 3445.95,-128.8 3323.8,-128.8 3323.8,-128.8"/>
<polygon fill="black" stroke="black" points="3323.8,-125.3 3313.8,-128.8 3323.8,-132.3 3323.8,-125.3"/>
</g>
<!-- UploadStatusComponent -->
<g id="node18" class="node">
<title>UploadStatusComponent</title>
<polygon fill="#ffffb3" stroke="black" points="3324.27,-84.8 3167.73,-84.8 3167.73,-48.8 3324.27,-48.8 3324.27,-84.8"/>
<text text-anchor="middle" x="3246" y="-62.6" font-family="Times,serif" font-size="14.00">UploadStatusComponent</text>
</g>
<!-- UploadStatusComponent&#45;&gt;FileUploaderModule -->
<g id="edge17" class="edge">
<title>UploadStatusComponent&#45;&gt;FileUploaderModule</title>
<path fill="none" stroke="black" d="M3247,-85.02C3247,-85.02 3247,-106.53 3247,-106.53"/>
<polygon fill="black" stroke="black" points="3243.5,-106.53 3247,-116.53 3250.5,-106.53 3243.5,-106.53"/>
</g>
<!-- FileUploaderComponent  -->
<g id="node20" class="node">
<title>FileUploaderComponent </title>
<polygon fill="#fb8072" stroke="black" points="3501.2,-220.8 3342.8,-220.8 3342.8,-184.8 3501.2,-184.8 3501.2,-220.8"/>
<text text-anchor="middle" x="3422" y="-198.6" font-family="Times,serif" font-size="14.00">FileUploaderComponent </text>
</g>
<!-- FileUploaderModule&#45;&gt;FileUploaderComponent  -->
<g id="edge18" class="edge">
<title>FileUploaderModule&#45;&gt;FileUploaderComponent </title>
<path fill="none" stroke="black" stroke-dasharray="5,2" d="M3313.75,-140.8C3352.73,-140.8 3394.3,-140.8 3394.3,-140.8 3394.3,-140.8 3394.3,-174.53 3394.3,-174.53"/>
<polygon fill="black" stroke="black" points="3390.8,-174.53 3394.3,-184.53 3397.8,-174.53 3390.8,-174.53"/>
</g>
<!-- UploadStatusComponent  -->
<g id="node21" class="node">
<title>UploadStatusComponent </title>
<polygon fill="#fb8072" stroke="black" points="3325.27,-220.8 3164.73,-220.8 3164.73,-184.8 3325.27,-184.8 3325.27,-220.8"/>
<text text-anchor="middle" x="3245" y="-198.6" font-family="Times,serif" font-size="14.00">UploadStatusComponent </text>
</g>
<!-- FileUploaderModule&#45;&gt;UploadStatusComponent  -->
<g id="edge19" class="edge">
<title>FileUploaderModule&#45;&gt;UploadStatusComponent </title>
<path fill="none" stroke="black" stroke-dasharray="5,2" d="M3247,-153.02C3247,-153.02 3247,-174.53 3247,-174.53"/>
<polygon fill="black" stroke="black" points="3243.5,-174.53 3247,-184.53 3250.5,-174.53 3243.5,-174.53"/>
</g>
<!-- MediaActionsComponent -->
<g id="node22" class="node">
<title>MediaActionsComponent</title>
<polygon fill="#ffffb3" stroke="black" points="2480.14,-84.8 2319.86,-84.8 2319.86,-48.8 2480.14,-48.8 2480.14,-84.8"/>
<text text-anchor="middle" x="2400" y="-62.6" font-family="Times,serif" font-size="14.00">MediaActionsComponent</text>
</g>
<!-- MediaActionsComponent&#45;&gt;MediaModule -->
<g id="edge20" class="edge">
<title>MediaActionsComponent&#45;&gt;MediaModule</title>
<path fill="none" stroke="black" d="M2466.66,-85.02C2466.66,-85.02 2466.66,-106.53 2466.66,-106.53"/>
<polygon fill="black" stroke="black" points="2463.16,-106.53 2466.66,-116.53 2470.16,-106.53 2463.16,-106.53"/>
</g>
<!-- MediaComponent -->
<g id="node23" class="node">
<title>MediaComponent</title>
<polygon fill="#ffffb3" stroke="black" points="2301.6,-84.8 2184.4,-84.8 2184.4,-48.8 2301.6,-48.8 2301.6,-84.8"/>
<text text-anchor="middle" x="2243" y="-62.6" font-family="Times,serif" font-size="14.00">MediaComponent</text>
</g>
<!-- MediaComponent&#45;&gt;MediaModule -->
<g id="edge21" class="edge">
<title>MediaComponent&#45;&gt;MediaModule</title>
<path fill="none" stroke="black" d="M2243,-84.82C2243,-102.17 2243,-125.8 2243,-125.8 2243,-125.8 2429.08,-125.8 2429.08,-125.8"/>
<polygon fill="black" stroke="black" points="2429.08,-129.3 2439.08,-125.8 2429.08,-122.3 2429.08,-129.3"/>
</g>
<!-- MediaGridListComponent -->
<g id="node24" class="node">
<title>MediaGridListComponent</title>
<polygon fill="#ffffb3" stroke="black" points="3125.03,-84.8 2960.97,-84.8 2960.97,-48.8 3125.03,-48.8 3125.03,-84.8"/>
<text text-anchor="middle" x="3043" y="-62.6" font-family="Times,serif" font-size="14.00">MediaGridListComponent</text>
</g>
<!-- MediaGridListComponent&#45;&gt;MediaModule -->
<g id="edge22" class="edge">
<title>MediaGridListComponent&#45;&gt;MediaModule</title>
<path fill="none" stroke="black" d="M3043,-85.05C3043,-107.82 3043,-143.8 3043,-143.8 3043,-143.8 2544.89,-143.8 2544.89,-143.8"/>
<polygon fill="black" stroke="black" points="2544.89,-140.3 2534.89,-143.8 2544.89,-147.3 2544.89,-140.3"/>
</g>
<!-- MediaImageComponent -->
<g id="node25" class="node">
<title>MediaImageComponent</title>
<polygon fill="#ffffb3" stroke="black" points="2943.08,-84.8 2790.92,-84.8 2790.92,-48.8 2943.08,-48.8 2943.08,-84.8"/>
<text text-anchor="middle" x="2867" y="-62.6" font-family="Times,serif" font-size="14.00">MediaImageComponent</text>
</g>
<!-- MediaImageComponent&#45;&gt;MediaModule -->
<g id="edge23" class="edge">
<title>MediaImageComponent&#45;&gt;MediaModule</title>
<path fill="none" stroke="black" d="M2867,-85.02C2867,-105.17 2867,-134.8 2867,-134.8 2867,-134.8 2544.74,-134.8 2544.74,-134.8"/>
<polygon fill="black" stroke="black" points="2544.74,-131.3 2534.74,-134.8 2544.74,-138.3 2544.74,-131.3"/>
</g>
<!-- MediaTypePipe -->
<g id="node26" class="node">
<title>MediaTypePipe</title>
<polygon fill="#ffffb3" stroke="black" points="2772.92,-84.8 2667.08,-84.8 2667.08,-48.8 2772.92,-48.8 2772.92,-84.8"/>
<text text-anchor="middle" x="2720" y="-62.6" font-family="Times,serif" font-size="14.00">MediaTypePipe</text>
</g>
<!-- MediaTypePipe&#45;&gt;MediaModule -->
<g id="edge24" class="edge">
<title>MediaTypePipe&#45;&gt;MediaModule</title>
<path fill="none" stroke="black" d="M2720,-84.82C2720,-102.17 2720,-125.8 2720,-125.8 2720,-125.8 2544.71,-125.8 2544.71,-125.8"/>
<polygon fill="black" stroke="black" points="2544.71,-122.3 2534.71,-125.8 2544.71,-129.3 2544.71,-122.3"/>
</g>
<!-- MediaVideoComponent -->
<g id="node27" class="node">
<title>MediaVideoComponent</title>
<polygon fill="#ffffb3" stroke="black" points="2649.81,-84.8 2498.19,-84.8 2498.19,-48.8 2649.81,-48.8 2649.81,-84.8"/>
<text text-anchor="middle" x="2574" y="-62.6" font-family="Times,serif" font-size="14.00">MediaVideoComponent</text>
</g>
<!-- MediaVideoComponent&#45;&gt;MediaModule -->
<g id="edge25" class="edge">
<title>MediaVideoComponent&#45;&gt;MediaModule</title>
<path fill="none" stroke="black" d="M2516.5,-85.02C2516.5,-85.02 2516.5,-106.53 2516.5,-106.53"/>
<polygon fill="black" stroke="black" points="2513,-106.53 2516.5,-116.53 2520,-106.53 2513,-106.53"/>
</g>
<!-- MediaRoutingModule -->
<g id="node29" class="node">
<title>MediaRoutingModule</title>
<polygon fill="#8dd3c7" stroke="black" points="2160.43,-84.8 2157.43,-88.8 2136.43,-88.8 2133.43,-84.8 2019.57,-84.8 2019.57,-48.8 2160.43,-48.8 2160.43,-84.8"/>
<text text-anchor="middle" x="2090" y="-62.6" font-family="Times,serif" font-size="14.00">MediaRoutingModule</text>
</g>
<!-- MediaRoutingModule&#45;&gt;MediaModule -->
<g id="edge26" class="edge">
<title>MediaRoutingModule&#45;&gt;MediaModule</title>
<path fill="none" stroke="black" d="M2090,-85.02C2090,-105.17 2090,-134.8 2090,-134.8 2090,-134.8 2429.11,-134.8 2429.11,-134.8"/>
<polygon fill="black" stroke="black" points="2429.11,-138.3 2439.11,-134.8 2429.11,-131.3 2429.11,-138.3"/>
</g>
</g>
</svg>
